<svg xmlns="http://www.w3.org/2000/svg" xmlns:xlink="http://www.w3.org/1999/xlink" viewBox="0 0 396.85039 396.85039"><defs><style>.cls-1,.cls-10,.cls-16,.cls-17,.cls-18,.cls-3,.cls-4,.cls-5,.cls-6,.cls-8{fill:none;}.cls-11,.cls-2{fill:#fff;}.cls-10,.cls-17,.cls-18,.cls-3,.cls-4,.cls-5,.cls-6{stroke:#231815;}.cls-10,.cls-16,.cls-17,.cls-18,.cls-3,.cls-4,.cls-6,.cls-8{stroke-linecap:round;}.cls-10,.cls-3,.cls-4,.cls-6{stroke-miterlimit:10;}.cls-4{stroke-width:2px;}.cls-16,.cls-17,.cls-18,.cls-5,.cls-8{stroke-miterlimit:8;}.cls-5{stroke-width:0.25px;}.cls-6{stroke-width:0.5px;}.cls-7{fill:#231815;}.cls-16,.cls-8{stroke:#040000;}.cls-8{stroke-width:4px;}.cls-9{fill:#040000;}.cls-10{stroke-width:11px;}.cls-11{fill-rule:evenodd;}.cls-12{clip-path:url(#clip-path);}.cls-13{clip-path:url(#clip-path-2);}.cls-14{clip-path:url(#clip-path-3);}.cls-15{clip-path:url(#clip-path-4);}.cls-16{stroke-width:13px;}.cls-18{stroke-width:3px;}</style><clipPath id="clip-path"><rect class="cls-1" x="42.08317" y="185.47747" width="28.34646" height="29.09242"/></clipPath><clipPath id="clip-path-2"><rect class="cls-1" x="236.65531" y="231.92121" width="30.4" height="31.2"/></clipPath><clipPath id="clip-path-3"><rect class="cls-1" x="128.6302" y="265.13415" width="30.4" height="31.2"/></clipPath><clipPath id="clip-path-4"><rect class="cls-1" x="164.99783" y="108.0166" width="30.4" height="31.2"/></clipPath></defs><title>sns-count-cache-logo_candidate_20190505_1</title><g id="背景"><rect class="cls-2" width="396.85039" height="396.85039"/></g><g id="ロゴ"><circle class="cls-3" cx="154.83564" cy="228.9356" r="130.39364" transform="translate(-116.5316 176.53901) rotate(-45)"/><g id="メモリ_外側5分_" data-name="メモリ（外側5分）"><line class="cls-4" x1="154.83568" y1="96.63736" x2="154.83568" y2="107.97594"/><line class="cls-4" x1="88.68656" y1="114.36197" x2="94.35585" y2="124.18147"/><line class="cls-4" x1="40.26204" y1="162.78649" x2="50.08154" y2="168.45578"/><line class="cls-4" x1="22.53743" y1="228.93562" x2="33.87601" y2="228.93562"/><line class="cls-4" x1="40.26204" y1="295.08474" x2="50.08154" y2="289.41545"/><line class="cls-4" x1="88.68656" y1="343.50926" x2="94.35585" y2="333.68976"/><line class="cls-4" x1="154.83568" y1="361.23387" x2="154.83568" y2="349.89529"/><line class="cls-4" x1="220.98481" y1="343.50926" x2="215.31552" y2="333.68976"/><line class="cls-4" x1="269.40933" y1="295.08474" x2="259.58983" y2="289.41545"/><line class="cls-4" x1="287.13394" y1="228.93562" x2="275.79535" y2="228.93562"/><line class="cls-4" x1="269.40933" y1="162.78649" x2="259.58983" y2="168.45578"/><line class="cls-4" x1="220.98481" y1="114.36197" x2="215.31552" y2="124.18147"/></g><g id="メモリ_外側1分_" data-name="メモリ（外側1分）"><line class="cls-3" x1="154.83568" y1="98.54186" x2="154.83568" y2="104.21115"/><line class="cls-3" x1="141.20582" y1="99.25617" x2="141.79843" y2="104.89441"/><line class="cls-3" x1="127.7253" y1="101.39128" x2="128.90401" y2="106.93668"/><line class="cls-3" x1="114.5418" y1="104.92379" x2="116.2937" y2="110.3156"/><line class="cls-3" x1="101.79977" y1="109.81499" x2="104.10567" y2="114.99415"/><line class="cls-3" x1="89.63881" y1="116.01131" x2="92.47345" y2="120.92106"/><line class="cls-3" x1="78.19216" y1="123.44485" x2="81.52448" y2="128.0314"/><line class="cls-3" x1="67.58523" y1="132.03417" x2="71.37873" y2="136.24728"/><line class="cls-3" x1="57.93424" y1="141.68516" x2="62.14734" y2="145.47866"/><line class="cls-3" x1="49.34492" y1="152.29209" x2="53.93147" y2="155.62442"/><line class="cls-3" x1="41.91138" y1="163.73874" x2="46.82113" y2="166.57338"/><line class="cls-3" x1="35.71506" y1="175.8997" x2="40.89422" y2="178.20561"/><line class="cls-3" x1="30.82385" y1="188.64173" x2="36.21567" y2="190.39364"/><line class="cls-3" x1="27.29135" y1="201.82523" x2="32.83675" y2="203.00394"/><line class="cls-3" x1="25.15624" y1="215.30576" x2="30.79447" y2="215.89836"/><line class="cls-3" x1="24.44193" y1="228.93562" x2="30.11122" y2="228.93562"/><line class="cls-3" x1="25.15624" y1="242.56547" x2="30.79447" y2="241.97287"/><line class="cls-3" x1="27.29135" y1="256.046" x2="32.83675" y2="254.86729"/><line class="cls-3" x1="30.82385" y1="269.2295" x2="36.21567" y2="267.47759"/><line class="cls-3" x1="35.71506" y1="281.97153" x2="40.89422" y2="279.66563"/><line class="cls-3" x1="41.91138" y1="294.13249" x2="46.82113" y2="291.29785"/><line class="cls-3" x1="49.34492" y1="305.57914" x2="53.93147" y2="302.24682"/><line class="cls-3" x1="57.93424" y1="316.18607" x2="62.14734" y2="312.39257"/><line class="cls-3" x1="67.58523" y1="325.83706" x2="71.37873" y2="321.62396"/><line class="cls-3" x1="78.19216" y1="334.42638" x2="81.52448" y2="329.83983"/><line class="cls-3" x1="89.63881" y1="341.85992" x2="92.47345" y2="336.95017"/><line class="cls-3" x1="101.79977" y1="348.05624" x2="104.10567" y2="342.87708"/><line class="cls-3" x1="114.5418" y1="352.94745" x2="116.2937" y2="347.55563"/><line class="cls-3" x1="127.7253" y1="356.47995" x2="128.90401" y2="350.93455"/><line class="cls-3" x1="141.20582" y1="358.61506" x2="141.79843" y2="352.97683"/><line class="cls-3" x1="154.83568" y1="359.32937" x2="154.83568" y2="353.66008"/><line class="cls-3" x1="168.46554" y1="358.61506" x2="167.87294" y2="352.97683"/><line class="cls-3" x1="181.94607" y1="356.47995" x2="180.76736" y2="350.93455"/><line class="cls-3" x1="195.12957" y1="352.94745" x2="193.37766" y2="347.55563"/><line class="cls-3" x1="207.8716" y1="348.05624" x2="205.56569" y2="342.87708"/><line class="cls-3" x1="220.03256" y1="341.85992" x2="217.19792" y2="336.95017"/><line class="cls-3" x1="231.47921" y1="334.42638" x2="228.14688" y2="329.83983"/><line class="cls-3" x1="242.08614" y1="325.83706" x2="238.29264" y2="321.62396"/><line class="cls-3" x1="251.73713" y1="316.18607" x2="247.52402" y2="312.39257"/><line class="cls-3" x1="260.32645" y1="305.57914" x2="255.73989" y2="302.24682"/><line class="cls-3" x1="267.75999" y1="294.13249" x2="262.85024" y2="291.29785"/><line class="cls-3" x1="273.95631" y1="281.97153" x2="268.77715" y2="279.66563"/><line class="cls-3" x1="278.84751" y1="269.2295" x2="273.4557" y2="267.47759"/><line class="cls-3" x1="282.38002" y1="256.046" x2="276.83462" y2="254.86729"/><line class="cls-3" x1="284.51513" y1="242.56547" x2="278.87689" y2="241.97287"/><line class="cls-3" x1="285.22944" y1="228.93562" x2="279.56015" y2="228.93562"/><line class="cls-3" x1="284.51513" y1="215.30576" x2="278.87689" y2="215.89836"/><line class="cls-3" x1="282.38002" y1="201.82523" x2="276.83462" y2="203.00394"/><line class="cls-3" x1="278.84751" y1="188.64173" x2="273.4557" y2="190.39364"/><line class="cls-3" x1="273.95631" y1="175.8997" x2="268.77715" y2="178.20561"/><line class="cls-3" x1="267.75999" y1="163.73874" x2="262.85024" y2="166.57338"/><line class="cls-3" x1="260.32645" y1="152.29209" x2="255.73989" y2="155.62442"/><line class="cls-3" x1="251.73713" y1="141.68516" x2="247.52402" y2="145.47866"/><line class="cls-3" x1="242.08614" y1="132.03417" x2="238.29264" y2="136.24728"/><line class="cls-3" x1="231.47921" y1="123.44485" x2="228.14688" y2="128.0314"/><line class="cls-3" x1="220.03256" y1="116.01131" x2="217.19792" y2="120.92106"/><line class="cls-3" x1="207.8716" y1="109.81499" x2="205.56569" y2="114.99415"/><line class="cls-3" x1="195.12957" y1="104.92379" x2="193.37766" y2="110.3156"/><line class="cls-3" x1="181.94607" y1="101.39128" x2="180.76736" y2="106.93668"/><line class="cls-3" x1="168.46554" y1="99.25617" x2="167.87294" y2="104.89441"/></g><g id="メモリ_外側1度_" data-name="メモリ（外側1度）"><line class="cls-3" x1="154.83568" y1="98.61139" x2="154.83568" y2="101.44603"/><line class="cls-3" x1="152.56121" y1="98.63124" x2="152.61068" y2="101.46545"/><line class="cls-3" x1="150.28743" y1="98.69078" x2="150.38636" y2="101.5237"/><line class="cls-3" x1="148.01504" y1="98.78999" x2="148.16339" y2="101.62075"/><line class="cls-3" x1="145.74473" y1="98.92885" x2="145.94246" y2="101.75659"/><line class="cls-3" x1="143.47718" y1="99.10731" x2="143.72423" y2="101.93117"/><line class="cls-3" x1="141.21309" y1="99.32532" x2="141.50939" y2="102.14443"/><line class="cls-3" x1="138.95316" y1="99.58281" x2="139.29861" y2="102.39632"/><line class="cls-3" x1="136.69806" y1="99.87969" x2="137.09256" y2="102.68675"/><line class="cls-3" x1="134.44848" y1="100.2159" x2="134.89192" y2="103.01564"/><line class="cls-3" x1="132.20512" y1="100.59131" x2="132.69735" y2="103.38289"/><line class="cls-3" x1="129.96865" y1="101.00581" x2="130.50952" y2="103.78838"/><line class="cls-3" x1="127.73975" y1="101.45929" x2="128.32911" y2="104.23199"/><line class="cls-3" x1="125.51911" y1="101.95159" x2="126.15677" y2="104.71358"/><line class="cls-3" x1="123.3074" y1="102.48257" x2="123.99316" y2="105.23302"/><line class="cls-3" x1="121.10529" y1="103.05208" x2="121.83895" y2="105.79014"/><line class="cls-3" x1="118.91346" y1="103.65993" x2="119.69479" y2="106.38476"/><line class="cls-3" x1="116.73257" y1="104.30594" x2="117.56134" y2="107.01672"/><line class="cls-3" x1="114.56328" y1="104.98991" x2="115.43924" y2="107.68582"/><line class="cls-3" x1="112.40627" y1="105.71164" x2="113.32914" y2="108.39185"/><line class="cls-3" x1="110.26217" y1="106.4709" x2="111.23168" y2="109.1346"/><line class="cls-3" x1="108.13166" y1="107.26747" x2="109.1475" y2="109.91384"/><line class="cls-3" x1="106.01537" y1="108.1011" x2="107.07725" y2="110.72933"/><line class="cls-3" x1="103.91395" y1="108.97153" x2="105.02154" y2="111.58084"/><line class="cls-3" x1="101.82804" y1="109.87851" x2="102.981" y2="112.46809"/><line class="cls-3" x1="99.75829" y1="110.82175" x2="100.95626" y2="113.39081"/><line class="cls-3" x1="97.7053" y1="111.80098" x2="98.94793" y2="114.34874"/><line class="cls-3" x1="95.66972" y1="112.81588" x2="96.95662" y2="115.34157"/><line class="cls-3" x1="93.65216" y1="113.86615" x2="94.98295" y2="116.369"/><line class="cls-3" x1="91.65324" y1="114.95148" x2="93.02751" y2="117.43071"/><line class="cls-3" x1="89.67357" y1="116.07152" x2="91.09089" y2="118.5264"/><line class="cls-3" x1="87.71374" y1="117.22595" x2="89.17369" y2="119.65571"/><line class="cls-3" x1="85.77436" y1="118.4144" x2="87.2765" y2="120.81832"/><line class="cls-3" x1="83.85602" y1="119.63652" x2="85.39988" y2="122.01386"/><line class="cls-3" x1="81.9593" y1="120.89193" x2="83.54441" y2="123.24196"/><line class="cls-3" x1="80.08478" y1="122.18026" x2="81.71066" y2="124.50226"/><line class="cls-3" x1="78.23302" y1="123.5011" x2="79.89919" y2="125.79438"/><line class="cls-3" x1="76.40461" y1="124.85406" x2="78.11054" y2="127.11791"/><line class="cls-3" x1="74.60008" y1="126.23872" x2="76.34526" y2="128.47245"/><line class="cls-3" x1="72.81999" y1="127.65467" x2="74.60389" y2="129.8576"/><line class="cls-3" x1="71.06489" y1="129.10147" x2="72.88696" y2="131.27293"/><line class="cls-3" x1="69.3353" y1="130.57867" x2="71.19499" y2="132.71801"/><line class="cls-3" x1="67.63175" y1="132.08584" x2="69.5285" y2="134.19239"/><line class="cls-3" x1="65.95477" y1="133.62251" x2="67.888" y2="135.69564"/><line class="cls-3" x1="64.30487" y1="135.18821" x2="66.27398" y2="137.22729"/><line class="cls-3" x1="62.68254" y1="136.78247" x2="64.68694" y2="138.78687"/><line class="cls-3" x1="61.08828" y1="138.4048" x2="63.12735" y2="140.37391"/><line class="cls-3" x1="59.52258" y1="140.05471" x2="61.59571" y2="141.98793"/><line class="cls-3" x1="57.98591" y1="141.73169" x2="60.09246" y2="143.62843"/><line class="cls-3" x1="56.47874" y1="143.43523" x2="58.61807" y2="145.29492"/><line class="cls-3" x1="55.00153" y1="145.16482" x2="57.173" y2="146.98689"/><line class="cls-3" x1="53.55474" y1="146.91992" x2="55.75767" y2="148.70382"/><line class="cls-3" x1="52.13879" y1="148.70001" x2="54.37252" y2="150.44519"/><line class="cls-3" x1="50.75413" y1="150.50454" x2="53.01798" y2="152.21047"/><line class="cls-3" x1="49.40117" y1="152.33296" x2="51.69445" y2="153.99912"/><line class="cls-3" x1="48.08033" y1="154.18471" x2="50.40233" y2="155.8106"/><line class="cls-3" x1="46.792" y1="156.05923" x2="49.14203" y2="157.64435"/><line class="cls-3" x1="45.53659" y1="157.95595" x2="47.91392" y2="159.49981"/><line class="cls-3" x1="44.31447" y1="159.8743" x2="46.71839" y2="161.37643"/><line class="cls-3" x1="43.12602" y1="161.81368" x2="45.55578" y2="163.27363"/><line class="cls-3" x1="41.97159" y1="163.7735" x2="44.42647" y2="165.19082"/><line class="cls-3" x1="40.85155" y1="165.75318" x2="43.33078" y2="167.12744"/><line class="cls-3" x1="39.76622" y1="167.7521" x2="42.26906" y2="169.08288"/><line class="cls-3" x1="38.71595" y1="169.76965" x2="41.24163" y2="171.05656"/><line class="cls-3" x1="37.70104" y1="171.80523" x2="40.24881" y2="173.04786"/><line class="cls-3" x1="36.72182" y1="173.85822" x2="39.29088" y2="175.05619"/><line class="cls-3" x1="35.77858" y1="175.92798" x2="38.36816" y2="177.08093"/><line class="cls-3" x1="34.8716" y1="178.01388" x2="37.4809" y2="179.12147"/><line class="cls-3" x1="34.00116" y1="180.1153" x2="36.6294" y2="181.17718"/><line class="cls-3" x1="33.16754" y1="182.23159" x2="35.81391" y2="183.24744"/><line class="cls-3" x1="32.37097" y1="184.3621" x2="35.03466" y2="185.33161"/><line class="cls-3" x1="31.61171" y1="186.5062" x2="34.29192" y2="187.42907"/><line class="cls-3" x1="30.88998" y1="188.66321" x2="33.58589" y2="189.53917"/><line class="cls-3" x1="30.20601" y1="190.8325" x2="32.91679" y2="191.66127"/><line class="cls-3" x1="29.56" y1="193.01339" x2="32.28483" y2="193.79472"/><line class="cls-3" x1="28.95215" y1="195.20522" x2="31.6902" y2="195.93888"/><line class="cls-3" x1="28.38264" y1="197.40733" x2="31.13309" y2="198.09309"/><line class="cls-3" x1="27.85166" y1="199.61904" x2="30.61365" y2="200.2567"/><line class="cls-3" x1="27.35935" y1="201.83968" x2="30.13206" y2="202.42904"/><line class="cls-3" x1="26.90588" y1="204.06858" x2="29.68844" y2="204.60946"/><line class="cls-3" x1="26.49137" y1="206.30505" x2="29.28296" y2="206.79728"/><line class="cls-3" x1="26.11596" y1="208.54841" x2="28.91571" y2="208.99185"/><line class="cls-3" x1="25.77976" y1="210.79799" x2="28.58682" y2="211.1925"/><line class="cls-3" x1="25.48287" y1="213.05309" x2="28.29639" y2="213.39854"/><line class="cls-3" x1="25.22539" y1="215.31302" x2="28.0445" y2="215.60933"/><line class="cls-3" x1="25.00738" y1="217.57711" x2="27.83124" y2="217.82417"/><line class="cls-3" x1="24.82892" y1="219.84466" x2="27.65666" y2="220.04239"/><line class="cls-3" x1="24.69006" y1="222.11497" x2="27.52082" y2="222.26333"/><line class="cls-3" x1="24.59085" y1="224.38737" x2="27.42377" y2="224.48629"/><line class="cls-3" x1="24.53131" y1="226.66114" x2="27.36552" y2="226.71062"/><line class="cls-3" x1="24.51146" y1="228.93562" x2="27.3461" y2="228.93562"/><line class="cls-3" x1="24.53131" y1="231.21009" x2="27.36552" y2="231.16062"/><line class="cls-3" x1="24.59085" y1="233.48387" x2="27.42377" y2="233.38494"/><line class="cls-3" x1="24.69006" y1="235.75626" x2="27.52082" y2="235.6079"/><line class="cls-3" x1="24.82892" y1="238.02657" x2="27.65666" y2="237.82884"/><line class="cls-3" x1="25.00738" y1="240.29412" x2="27.83124" y2="240.04706"/><line class="cls-3" x1="25.22539" y1="242.55821" x2="28.0445" y2="242.26191"/><line class="cls-3" x1="25.48287" y1="244.81814" x2="28.29639" y2="244.47269"/><line class="cls-3" x1="25.77976" y1="247.07324" x2="28.58682" y2="246.67874"/><line class="cls-3" x1="26.11596" y1="249.32282" x2="28.91571" y2="248.87938"/><line class="cls-3" x1="26.49137" y1="251.56618" x2="29.28296" y2="251.07395"/><line class="cls-3" x1="26.90588" y1="253.80265" x2="29.68844" y2="253.26177"/><line class="cls-3" x1="27.35935" y1="256.03155" x2="30.13206" y2="255.44219"/><line class="cls-3" x1="27.85166" y1="258.25219" x2="30.61365" y2="257.61453"/><line class="cls-3" x1="28.38264" y1="260.4639" x2="31.13309" y2="259.77814"/><line class="cls-3" x1="28.95215" y1="262.66601" x2="31.6902" y2="261.93235"/><line class="cls-3" x1="29.56" y1="264.85784" x2="32.28483" y2="264.07651"/><line class="cls-3" x1="30.20601" y1="267.03873" x2="32.91679" y2="266.20996"/><line class="cls-3" x1="30.88998" y1="269.20802" x2="33.58589" y2="268.33206"/><line class="cls-3" x1="31.61171" y1="271.36503" x2="34.29192" y2="270.44216"/><line class="cls-3" x1="32.37097" y1="273.50913" x2="35.03466" y2="272.53962"/><line class="cls-3" x1="33.16754" y1="275.63964" x2="35.81391" y2="274.6238"/><line class="cls-3" x1="34.00116" y1="277.75593" x2="36.6294" y2="276.69405"/><line class="cls-3" x1="34.8716" y1="279.85735" x2="37.4809" y2="278.74976"/><line class="cls-3" x1="35.77858" y1="281.94325" x2="38.36816" y2="280.7903"/><line class="cls-3" x1="36.72182" y1="284.01301" x2="39.29088" y2="282.81504"/><line class="cls-3" x1="37.70104" y1="286.066" x2="40.24881" y2="284.82337"/><line class="cls-3" x1="38.71595" y1="288.10158" x2="41.24163" y2="286.81467"/><line class="cls-3" x1="39.76622" y1="290.11913" x2="42.26906" y2="288.78835"/><line class="cls-3" x1="40.85155" y1="292.11805" x2="43.33078" y2="290.74379"/><line class="cls-3" x1="41.97159" y1="294.09773" x2="44.42647" y2="292.68041"/><line class="cls-3" x1="43.12602" y1="296.05755" x2="45.55578" y2="294.5976"/><line class="cls-3" x1="44.31447" y1="297.99693" x2="46.71839" y2="296.4948"/><line class="cls-3" x1="45.53659" y1="299.91528" x2="47.91392" y2="298.37142"/><line class="cls-3" x1="46.792" y1="301.812" x2="49.14203" y2="300.22688"/><line class="cls-3" x1="48.08033" y1="303.68652" x2="50.40233" y2="302.06064"/><line class="cls-3" x1="49.40117" y1="305.53827" x2="51.69445" y2="303.87211"/><line class="cls-3" x1="50.75413" y1="307.36669" x2="53.01798" y2="305.66076"/><line class="cls-3" x1="52.13879" y1="309.17122" x2="54.37252" y2="307.42604"/><line class="cls-3" x1="53.55474" y1="310.95131" x2="55.75767" y2="309.16741"/><line class="cls-3" x1="55.00153" y1="312.70641" x2="57.173" y2="310.88434"/><line class="cls-3" x1="56.47874" y1="314.436" x2="58.61807" y2="312.57631"/><line class="cls-3" x1="57.98591" y1="316.13954" x2="60.09246" y2="314.2428"/><line class="cls-3" x1="59.52258" y1="317.81652" x2="61.59571" y2="315.8833"/><line class="cls-3" x1="61.08828" y1="319.46643" x2="63.12735" y2="317.49732"/><line class="cls-3" x1="62.68254" y1="321.08876" x2="64.68694" y2="319.08436"/><line class="cls-3" x1="64.30487" y1="322.68302" x2="66.27398" y2="320.64395"/><line class="cls-3" x1="65.95477" y1="324.24872" x2="67.888" y2="322.17559"/><line class="cls-3" x1="67.63175" y1="325.78539" x2="69.5285" y2="323.67884"/><line class="cls-3" x1="69.3353" y1="327.29256" x2="71.19499" y2="325.15322"/><line class="cls-3" x1="71.06489" y1="328.76977" x2="72.88696" y2="326.5983"/><line class="cls-3" x1="72.81999" y1="330.21656" x2="74.60389" y2="328.01363"/><line class="cls-3" x1="74.60008" y1="331.63251" x2="76.34526" y2="329.39878"/><line class="cls-3" x1="76.40461" y1="333.01717" x2="78.11054" y2="330.75332"/><line class="cls-3" x1="78.23302" y1="334.37013" x2="79.89919" y2="332.07685"/><line class="cls-3" x1="80.08478" y1="335.69097" x2="81.71066" y2="333.36897"/><line class="cls-3" x1="81.9593" y1="336.9793" x2="83.54441" y2="334.62927"/><line class="cls-3" x1="83.85602" y1="338.23471" x2="85.39988" y2="335.85738"/><line class="cls-3" x1="85.77436" y1="339.45683" x2="87.2765" y2="337.05291"/><line class="cls-3" x1="87.71374" y1="340.64528" x2="89.17369" y2="338.21552"/><line class="cls-3" x1="89.67357" y1="341.79971" x2="91.09089" y2="339.34483"/><line class="cls-3" x1="91.65324" y1="342.91975" x2="93.02751" y2="340.44052"/><line class="cls-3" x1="93.65216" y1="344.00508" x2="94.98295" y2="341.50223"/><line class="cls-3" x1="95.66972" y1="345.05535" x2="96.95662" y2="342.52966"/><line class="cls-3" x1="97.7053" y1="346.07026" x2="98.94793" y2="343.52249"/><line class="cls-3" x1="99.75829" y1="347.04948" x2="100.95626" y2="344.48042"/><line class="cls-3" x1="101.82804" y1="347.99272" x2="102.981" y2="345.40314"/><line class="cls-3" x1="103.91395" y1="348.8997" x2="105.02154" y2="346.29039"/><line class="cls-3" x1="106.01537" y1="349.77014" x2="107.07725" y2="347.1419"/><line class="cls-3" x1="108.13166" y1="350.60376" x2="109.1475" y2="347.95739"/><line class="cls-3" x1="110.26217" y1="351.40033" x2="111.23168" y2="348.73663"/><line class="cls-3" x1="112.40627" y1="352.15959" x2="113.32914" y2="349.47938"/><line class="cls-3" x1="114.56328" y1="352.88132" x2="115.43924" y2="350.18541"/><line class="cls-3" x1="116.73257" y1="353.56529" x2="117.56134" y2="350.85451"/><line class="cls-3" x1="118.91346" y1="354.2113" x2="119.69479" y2="351.48647"/><line class="cls-3" x1="121.10529" y1="354.81915" x2="121.83895" y2="352.0811"/><line class="cls-3" x1="123.3074" y1="355.38866" x2="123.99316" y2="352.63821"/><line class="cls-3" x1="125.51911" y1="355.91964" x2="126.15677" y2="353.15765"/><line class="cls-3" x1="127.73975" y1="356.41195" x2="128.32911" y2="353.63924"/><line class="cls-3" x1="129.96865" y1="356.86542" x2="130.50952" y2="354.08285"/><line class="cls-3" x1="132.20512" y1="357.27993" x2="132.69735" y2="354.48834"/><line class="cls-3" x1="134.44848" y1="357.65534" x2="134.89192" y2="354.85559"/><line class="cls-3" x1="136.69806" y1="357.99154" x2="137.09256" y2="355.18448"/><line class="cls-3" x1="138.95316" y1="358.28843" x2="139.29861" y2="355.47491"/><line class="cls-3" x1="141.21309" y1="358.54591" x2="141.50939" y2="355.7268"/><line class="cls-3" x1="143.47718" y1="358.76392" x2="143.72423" y2="355.94006"/><line class="cls-3" x1="145.74473" y1="358.94238" x2="145.94246" y2="356.11464"/><line class="cls-3" x1="148.01504" y1="359.08124" x2="148.16339" y2="356.25048"/><line class="cls-3" x1="150.28743" y1="359.18045" x2="150.38636" y2="356.34753"/><line class="cls-3" x1="152.56121" y1="359.23999" x2="152.61068" y2="356.40578"/><line class="cls-3" x1="154.83568" y1="359.25984" x2="154.83568" y2="356.4252"/><line class="cls-3" x1="157.11016" y1="359.23999" x2="157.06068" y2="356.40578"/><line class="cls-3" x1="159.38393" y1="359.18045" x2="159.28501" y2="356.34753"/><line class="cls-3" x1="161.65633" y1="359.08124" x2="161.50797" y2="356.25048"/><line class="cls-3" x1="163.92664" y1="358.94238" x2="163.72891" y2="356.11464"/><line class="cls-3" x1="166.19419" y1="358.76392" x2="165.94713" y2="355.94006"/><line class="cls-3" x1="168.45827" y1="358.54591" x2="168.16197" y2="355.7268"/><line class="cls-3" x1="170.71821" y1="358.28843" x2="170.37276" y2="355.47491"/><line class="cls-3" x1="172.97331" y1="357.99154" x2="172.5788" y2="355.18448"/><line class="cls-3" x1="175.22288" y1="357.65534" x2="174.77945" y2="354.85559"/><line class="cls-3" x1="177.46625" y1="357.27993" x2="176.97402" y2="354.48834"/><line class="cls-3" x1="179.70272" y1="356.86542" x2="179.16184" y2="354.08285"/><line class="cls-3" x1="181.93161" y1="356.41195" x2="181.34226" y2="353.63924"/><line class="cls-3" x1="184.15226" y1="355.91964" x2="183.5146" y2="353.15765"/><line class="cls-3" x1="186.36397" y1="355.38866" x2="185.6782" y2="352.63821"/><line class="cls-3" x1="188.56608" y1="354.81915" x2="187.83242" y2="352.0811"/><line class="cls-3" x1="190.75791" y1="354.2113" x2="189.97657" y2="351.48647"/><line class="cls-3" x1="192.9388" y1="353.56529" x2="192.11003" y2="350.85451"/><line class="cls-3" x1="195.10808" y1="352.88132" x2="194.23213" y2="350.18541"/><line class="cls-3" x1="197.2651" y1="352.15959" x2="196.34223" y2="349.47938"/><line class="cls-3" x1="199.40919" y1="351.40033" x2="198.43969" y2="348.73663"/><line class="cls-3" x1="201.53971" y1="350.60376" x2="200.52386" y2="347.95739"/><line class="cls-3" x1="203.656" y1="349.77014" x2="202.59412" y2="347.1419"/><line class="cls-3" x1="205.75742" y1="348.8997" x2="204.64983" y2="346.29039"/><line class="cls-3" x1="207.84332" y1="347.99272" x2="206.69037" y2="345.40314"/><line class="cls-3" x1="209.91308" y1="347.04948" x2="208.71511" y2="344.48042"/><line class="cls-3" x1="211.96606" y1="346.07026" x2="210.72344" y2="343.52249"/><line class="cls-3" x1="214.00164" y1="345.05535" x2="212.71474" y2="342.52966"/><line class="cls-3" x1="216.0192" y1="344.00508" x2="214.68842" y2="341.50223"/><line class="cls-3" x1="218.01812" y1="342.91975" x2="216.64386" y2="340.44052"/><line class="cls-3" x1="219.9978" y1="341.79971" x2="218.58047" y2="339.34483"/><line class="cls-3" x1="221.95762" y1="340.64528" x2="220.49767" y2="338.21552"/><line class="cls-3" x1="223.897" y1="339.45683" x2="222.39487" y2="337.05291"/><line class="cls-3" x1="225.81535" y1="338.23471" x2="224.27149" y2="335.85738"/><line class="cls-3" x1="227.71207" y1="336.9793" x2="226.12695" y2="334.62927"/><line class="cls-3" x1="229.58659" y1="335.69097" x2="227.9607" y2="333.36897"/><line class="cls-3" x1="231.43834" y1="334.37013" x2="229.77218" y2="332.07685"/><line class="cls-3" x1="233.26676" y1="333.01717" x2="231.56083" y2="330.75332"/><line class="cls-3" x1="235.07129" y1="331.63251" x2="233.32611" y2="329.39878"/><line class="cls-3" x1="236.85138" y1="330.21656" x2="235.06748" y2="328.01363"/><line class="cls-3" x1="238.60648" y1="328.76977" x2="236.78441" y2="326.5983"/><line class="cls-3" x1="240.33607" y1="327.29256" x2="238.47637" y2="325.15322"/><line class="cls-3" x1="242.03961" y1="325.78539" x2="240.14286" y2="323.67884"/><line class="cls-3" x1="243.71659" y1="324.24872" x2="241.78337" y2="322.17559"/><line class="cls-3" x1="245.3665" y1="322.68302" x2="243.39739" y2="320.64395"/><line class="cls-3" x1="246.98883" y1="321.08876" x2="244.98443" y2="319.08436"/><line class="cls-3" x1="248.58309" y1="319.46643" x2="246.54401" y2="317.49732"/><line class="cls-3" x1="250.14879" y1="317.81652" x2="248.07566" y2="315.8833"/><line class="cls-3" x1="251.68546" y1="316.13954" x2="249.57891" y2="314.2428"/><line class="cls-3" x1="253.19263" y1="314.436" x2="251.05329" y2="312.57631"/><line class="cls-3" x1="254.66983" y1="312.70641" x2="252.49837" y2="310.88434"/><line class="cls-3" x1="256.11663" y1="310.95131" x2="253.9137" y2="309.16741"/><line class="cls-3" x1="257.53258" y1="309.17122" x2="255.29885" y2="307.42604"/><line class="cls-3" x1="258.91724" y1="307.36669" x2="256.65339" y2="305.66076"/><line class="cls-3" x1="260.2702" y1="305.53827" x2="257.97692" y2="303.87211"/><line class="cls-3" x1="261.59104" y1="303.68652" x2="259.26904" y2="302.06064"/><line class="cls-3" x1="262.87936" y1="301.812" x2="260.52934" y2="300.22688"/><line class="cls-3" x1="264.13478" y1="299.91528" x2="261.75744" y2="298.37142"/><line class="cls-3" x1="265.3569" y1="297.99693" x2="262.95298" y2="296.4948"/><line class="cls-3" x1="266.54535" y1="296.05755" x2="264.11558" y2="294.5976"/><line class="cls-3" x1="267.69978" y1="294.09773" x2="265.2449" y2="292.68041"/><line class="cls-3" x1="268.81982" y1="292.11805" x2="266.34058" y2="290.74379"/><line class="cls-3" x1="269.90515" y1="290.11913" x2="267.4023" y2="288.78835"/><line class="cls-3" x1="270.95542" y1="288.10158" x2="268.42973" y2="286.81467"/><line class="cls-3" x1="271.97032" y1="286.066" x2="269.42256" y2="284.82337"/><line class="cls-3" x1="272.94955" y1="284.01301" x2="270.38048" y2="282.81504"/><line class="cls-3" x1="273.89279" y1="281.94325" x2="271.30321" y2="280.7903"/><line class="cls-3" x1="274.79977" y1="279.85735" x2="272.19046" y2="278.74976"/><line class="cls-3" x1="275.6702" y1="277.75593" x2="273.04197" y2="276.69405"/><line class="cls-3" x1="276.50383" y1="275.63964" x2="273.85746" y2="274.6238"/><line class="cls-3" x1="277.3004" y1="273.50913" x2="274.6367" y2="272.53962"/><line class="cls-3" x1="278.05966" y1="271.36503" x2="275.37945" y2="270.44216"/><line class="cls-3" x1="278.78139" y1="269.20802" x2="276.08548" y2="268.33206"/><line class="cls-3" x1="279.46536" y1="267.03873" x2="276.75458" y2="266.20996"/><line class="cls-3" x1="280.11137" y1="264.85784" x2="277.38654" y2="264.07651"/><line class="cls-3" x1="280.71922" y1="262.66601" x2="277.98116" y2="261.93235"/><line class="cls-3" x1="281.28872" y1="260.4639" x2="278.53828" y2="259.77814"/><line class="cls-3" x1="281.81971" y1="258.25219" x2="279.05772" y2="257.61453"/><line class="cls-3" x1="282.31201" y1="256.03155" x2="279.53931" y2="255.44219"/><line class="cls-3" x1="282.76549" y1="253.80265" x2="279.98292" y2="253.26177"/><line class="cls-3" x1="283.17999" y1="251.56618" x2="280.38841" y2="251.07395"/><line class="cls-3" x1="283.5554" y1="249.32282" x2="280.75566" y2="248.87938"/><line class="cls-3" x1="283.8916" y1="247.07324" x2="281.08455" y2="246.67874"/><line class="cls-3" x1="284.18849" y1="244.81814" x2="281.37498" y2="244.47269"/><line class="cls-3" x1="284.44598" y1="242.55821" x2="281.62686" y2="242.26191"/><line class="cls-3" x1="284.66399" y1="240.29412" x2="281.84013" y2="240.04706"/><line class="cls-3" x1="284.84245" y1="238.02657" x2="282.01471" y2="237.82884"/><line class="cls-3" x1="284.98131" y1="235.75626" x2="282.15055" y2="235.6079"/><line class="cls-3" x1="285.08052" y1="233.48387" x2="282.2476" y2="233.38494"/><line class="cls-3" x1="285.14006" y1="231.21009" x2="282.30585" y2="231.16062"/><line class="cls-3" x1="285.15991" y1="228.93562" x2="282.32527" y2="228.93562"/><line class="cls-3" x1="285.14006" y1="226.66114" x2="282.30585" y2="226.71062"/><line class="cls-3" x1="285.08052" y1="224.38737" x2="282.2476" y2="224.48629"/><line class="cls-3" x1="284.98131" y1="222.11497" x2="282.15055" y2="222.26333"/><line class="cls-3" x1="284.84245" y1="219.84466" x2="282.01471" y2="220.04239"/><line class="cls-3" x1="284.66399" y1="217.57711" x2="281.84013" y2="217.82417"/><line class="cls-3" x1="284.44598" y1="215.31302" x2="281.62686" y2="215.60933"/><line class="cls-3" x1="284.18849" y1="213.05309" x2="281.37498" y2="213.39854"/><line class="cls-3" x1="283.8916" y1="210.79799" x2="281.08455" y2="211.1925"/><line class="cls-3" x1="283.5554" y1="208.54841" x2="280.75566" y2="208.99185"/><line class="cls-3" x1="283.17999" y1="206.30505" x2="280.38841" y2="206.79728"/><line class="cls-3" x1="282.76549" y1="204.06858" x2="279.98292" y2="204.60946"/><line class="cls-3" x1="282.31201" y1="201.83969" x2="279.53931" y2="202.42904"/><line class="cls-3" x1="281.81971" y1="199.61904" x2="279.05772" y2="200.2567"/><line class="cls-3" x1="281.28872" y1="197.40733" x2="278.53828" y2="198.09309"/><line class="cls-3" x1="280.71922" y1="195.20522" x2="277.98116" y2="195.93888"/><line class="cls-3" x1="280.11137" y1="193.01339" x2="277.38654" y2="193.79472"/><line class="cls-3" x1="279.46536" y1="190.8325" x2="276.75458" y2="191.66127"/><line class="cls-3" x1="278.78139" y1="188.66321" x2="276.08548" y2="189.53917"/><line class="cls-3" x1="278.05966" y1="186.5062" x2="275.37945" y2="187.42907"/><line class="cls-3" x1="277.3004" y1="184.3621" x2="274.6367" y2="185.33161"/><line class="cls-3" x1="276.50383" y1="182.23159" x2="273.85746" y2="183.24744"/><line class="cls-3" x1="275.6702" y1="180.1153" x2="273.04197" y2="181.17718"/><line class="cls-3" x1="274.79977" y1="178.01388" x2="272.19046" y2="179.12147"/><line class="cls-3" x1="273.89279" y1="175.92798" x2="271.30321" y2="177.08093"/><line class="cls-3" x1="272.94955" y1="173.85822" x2="270.38048" y2="175.05619"/><line class="cls-3" x1="271.97032" y1="171.80523" x2="269.42256" y2="173.04786"/><line class="cls-3" x1="270.95542" y1="169.76965" x2="268.42973" y2="171.05656"/><line class="cls-3" x1="269.90515" y1="167.7521" x2="267.4023" y2="169.08288"/><line class="cls-3" x1="268.81982" y1="165.75318" x2="266.34058" y2="167.12744"/><line class="cls-3" x1="267.69978" y1="163.7735" x2="265.2449" y2="165.19082"/><line class="cls-3" x1="266.54535" y1="161.81368" x2="264.11558" y2="163.27363"/><line class="cls-3" x1="265.3569" y1="159.8743" x2="262.95298" y2="161.37643"/><line class="cls-3" x1="264.13478" y1="157.95595" x2="261.75744" y2="159.49981"/><line class="cls-3" x1="262.87936" y1="156.05923" x2="260.52934" y2="157.64435"/><line class="cls-3" x1="261.59104" y1="154.18471" x2="259.26904" y2="155.8106"/><line class="cls-3" x1="260.2702" y1="152.33296" x2="257.97692" y2="153.99912"/><line class="cls-3" x1="258.91724" y1="150.50454" x2="256.65339" y2="152.21047"/><line class="cls-3" x1="257.53258" y1="148.70001" x2="255.29885" y2="150.44519"/><line class="cls-3" x1="256.11663" y1="146.91992" x2="253.9137" y2="148.70382"/><line class="cls-3" x1="254.66983" y1="145.16482" x2="252.49837" y2="146.98689"/><line class="cls-3" x1="253.19263" y1="143.43523" x2="251.05329" y2="145.29492"/><line class="cls-3" x1="251.68546" y1="141.73169" x2="249.57891" y2="143.62843"/><line class="cls-3" x1="250.14879" y1="140.05471" x2="248.07566" y2="141.98793"/><line class="cls-3" x1="248.58309" y1="138.4048" x2="246.54401" y2="140.37391"/><line class="cls-3" x1="246.98883" y1="136.78247" x2="244.98443" y2="138.78687"/><line class="cls-3" x1="245.3665" y1="135.18821" x2="243.39739" y2="137.22729"/><line class="cls-3" x1="243.71659" y1="133.62251" x2="241.78337" y2="135.69564"/><line class="cls-3" x1="242.03961" y1="132.08584" x2="240.14286" y2="134.19239"/><line class="cls-3" x1="240.33607" y1="130.57867" x2="238.47637" y2="132.71801"/><line class="cls-3" x1="238.60648" y1="129.10147" x2="236.78441" y2="131.27293"/><line class="cls-3" x1="236.85138" y1="127.65467" x2="235.06748" y2="129.8576"/><line class="cls-3" x1="235.07129" y1="126.23872" x2="233.32611" y2="128.47245"/><line class="cls-3" x1="233.26676" y1="124.85406" x2="231.56083" y2="127.11791"/><line class="cls-3" x1="231.43834" y1="123.5011" x2="229.77218" y2="125.79438"/><line class="cls-3" x1="229.58659" y1="122.18026" x2="227.9607" y2="124.50226"/><line class="cls-3" x1="227.71207" y1="120.89193" x2="226.12695" y2="123.24196"/><line class="cls-3" x1="225.81535" y1="119.63652" x2="224.27149" y2="122.01386"/><line class="cls-3" x1="223.897" y1="118.4144" x2="222.39487" y2="120.81832"/><line class="cls-3" x1="221.95762" y1="117.22595" x2="220.49767" y2="119.65571"/><line class="cls-3" x1="219.9978" y1="116.07152" x2="218.58047" y2="118.5264"/><line class="cls-3" x1="218.01812" y1="114.95148" x2="216.64386" y2="117.43071"/><line class="cls-3" x1="216.0192" y1="113.86615" x2="214.68842" y2="116.369"/><line class="cls-3" x1="214.00164" y1="112.81588" x2="212.71474" y2="115.34157"/><line class="cls-3" x1="211.96606" y1="111.80098" x2="210.72344" y2="114.34874"/><line class="cls-3" x1="209.91308" y1="110.82175" x2="208.71511" y2="113.39081"/><line class="cls-3" x1="207.84332" y1="109.87851" x2="206.69037" y2="112.46809"/><line class="cls-3" x1="205.75742" y1="108.97153" x2="204.64983" y2="111.58084"/><line class="cls-3" x1="203.656" y1="108.1011" x2="202.59412" y2="110.72933"/><line class="cls-3" x1="201.53971" y1="107.26747" x2="200.52386" y2="109.91384"/><line class="cls-3" x1="199.40919" y1="106.4709" x2="198.43969" y2="109.1346"/><line class="cls-3" x1="197.2651" y1="105.71164" x2="196.34223" y2="108.39185"/><line class="cls-3" x1="195.10808" y1="104.98991" x2="194.23213" y2="107.68582"/><line class="cls-3" x1="192.9388" y1="104.30594" x2="192.11003" y2="107.01672"/><line class="cls-3" x1="190.75791" y1="103.65993" x2="189.97657" y2="106.38476"/><line class="cls-3" x1="188.56608" y1="103.05208" x2="187.83242" y2="105.79014"/><line class="cls-3" x1="186.36397" y1="102.48257" x2="185.67821" y2="105.23302"/><line class="cls-3" x1="184.15226" y1="101.95159" x2="183.5146" y2="104.71358"/><line class="cls-3" x1="181.93161" y1="101.45929" x2="181.34226" y2="104.23199"/><line class="cls-3" x1="179.70272" y1="101.00581" x2="179.16184" y2="103.78838"/><line class="cls-3" x1="177.46625" y1="100.59131" x2="176.97402" y2="103.38289"/><line class="cls-3" x1="175.22288" y1="100.2159" x2="174.77945" y2="103.01564"/><line class="cls-3" x1="172.97331" y1="99.87969" x2="172.5788" y2="102.68675"/><line class="cls-3" x1="170.71821" y1="99.58281" x2="170.37276" y2="102.39632"/><line class="cls-3" x1="168.45827" y1="99.32532" x2="168.16197" y2="102.14443"/><line class="cls-3" x1="166.19419" y1="99.10731" x2="165.94713" y2="101.93117"/><line class="cls-3" x1="163.92664" y1="98.92885" x2="163.72891" y2="101.75659"/><line class="cls-3" x1="161.65633" y1="98.78999" x2="161.50797" y2="101.62075"/><line class="cls-3" x1="159.38393" y1="98.69078" x2="159.28501" y2="101.5237"/><line class="cls-3" x1="157.11016" y1="98.63124" x2="157.06068" y2="101.46545"/></g><circle id="メモリ_内側円_" data-name="メモリ（内側円）" class="cls-5" cx="154.83568" cy="228.93562" r="83.4006"/><g id="メモリ_内側1分_" data-name="メモリ（内側1分）"><line class="cls-6" x1="154.83568" y1="144.90391" x2="154.83568" y2="149.15588"/><line class="cls-6" x1="146.05198" y1="145.36425" x2="146.49643" y2="149.59292"/><line class="cls-6" x1="137.36451" y1="146.74021" x2="138.24854" y2="150.89926"/><line class="cls-6" x1="128.86846" y1="149.01672" x2="130.18239" y2="153.06058"/><line class="cls-6" x1="120.65691" y1="152.16883" x2="122.38634" y2="156.0532"/><line class="cls-6" x1="112.81983" y1="156.16203" x2="114.94582" y2="159.84434"/><line class="cls-6" x1="105.44309" y1="160.95254" x2="107.94233" y2="164.39245"/><line class="cls-6" x1="98.6075" y1="166.48789" x2="101.45262" y2="169.64772"/><line class="cls-6" x1="92.38796" y1="172.70743" x2="95.54779" y2="175.55255"/><line class="cls-6" x1="86.85261" y1="179.54302" x2="90.29252" y2="182.04226"/><line class="cls-6" x1="82.06209" y1="186.91976" x2="85.74441" y2="189.04575"/><line class="cls-6" x1="78.0689" y1="194.75684" x2="81.95327" y2="196.48627"/><line class="cls-6" x1="74.91678" y1="202.96839" x2="78.96065" y2="204.28232"/><line class="cls-6" x1="72.64027" y1="211.46444" x2="76.79933" y2="212.34848"/><line class="cls-6" x1="71.26431" y1="220.15191" x2="75.49299" y2="220.59636"/><line class="cls-6" x1="70.80398" y1="228.93562" x2="75.05595" y2="228.93562"/><line class="cls-6" x1="71.26431" y1="237.71932" x2="75.49299" y2="237.27487"/><line class="cls-6" x1="72.64027" y1="246.40679" x2="76.79933" y2="245.52276"/><line class="cls-6" x1="74.91678" y1="254.90284" x2="78.96065" y2="253.58891"/><line class="cls-6" x1="78.0689" y1="263.11439" x2="81.95327" y2="261.38496"/><line class="cls-6" x1="82.06209" y1="270.95147" x2="85.74441" y2="268.82548"/><line class="cls-6" x1="86.85261" y1="278.32821" x2="90.29252" y2="275.82897"/><line class="cls-6" x1="92.38796" y1="285.1638" x2="95.54779" y2="282.31868"/><line class="cls-6" x1="98.6075" y1="291.38334" x2="101.45262" y2="288.22351"/><line class="cls-6" x1="105.44309" y1="296.91869" x2="107.94233" y2="293.47878"/><line class="cls-6" x1="112.81983" y1="301.70921" x2="114.94582" y2="298.02689"/><line class="cls-6" x1="120.65691" y1="305.7024" x2="122.38634" y2="301.81803"/><line class="cls-6" x1="128.86846" y1="308.85451" x2="130.18239" y2="304.81065"/><line class="cls-6" x1="137.36451" y1="311.13102" x2="138.24854" y2="306.97197"/><line class="cls-6" x1="146.05198" y1="312.50698" x2="146.49643" y2="308.27831"/><line class="cls-6" x1="154.83568" y1="312.96732" x2="154.83568" y2="308.71535"/><line class="cls-6" x1="163.61939" y1="312.50698" x2="163.17494" y2="308.27831"/><line class="cls-6" x1="172.30686" y1="311.13102" x2="171.42282" y2="306.97197"/><line class="cls-6" x1="180.80291" y1="308.85451" x2="179.48898" y2="304.81065"/><line class="cls-6" x1="189.01446" y1="305.7024" x2="187.28503" y2="301.81803"/><line class="cls-6" x1="196.85154" y1="301.70921" x2="194.72555" y2="298.02689"/><line class="cls-6" x1="204.22828" y1="296.91869" x2="201.72904" y2="293.47878"/><line class="cls-6" x1="211.06387" y1="291.38334" x2="208.21875" y2="288.22351"/><line class="cls-6" x1="217.28341" y1="285.1638" x2="214.12358" y2="282.31868"/><line class="cls-6" x1="222.81876" y1="278.32821" x2="219.37884" y2="275.82897"/><line class="cls-6" x1="227.60927" y1="270.95147" x2="223.92696" y2="268.82548"/><line class="cls-6" x1="231.60246" y1="263.11439" x2="227.7181" y2="261.38496"/><line class="cls-6" x1="234.75458" y1="254.90284" x2="230.71072" y2="253.58891"/><line class="cls-6" x1="237.03109" y1="246.40679" x2="232.87204" y2="245.52276"/><line class="cls-6" x1="238.40705" y1="237.71932" x2="234.17838" y2="237.27487"/><line class="cls-6" x1="238.86739" y1="228.93562" x2="234.61542" y2="228.93562"/><line class="cls-6" x1="238.40705" y1="220.15191" x2="234.17838" y2="220.59636"/><line class="cls-6" x1="237.03109" y1="211.46444" x2="232.87204" y2="212.34848"/><line class="cls-6" x1="234.75458" y1="202.96839" x2="230.71072" y2="204.28232"/><line class="cls-6" x1="231.60246" y1="194.75684" x2="227.7181" y2="196.48627"/><line class="cls-6" x1="227.60927" y1="186.91976" x2="223.92696" y2="189.04575"/><line class="cls-6" x1="222.81876" y1="179.54302" x2="219.37884" y2="182.04226"/><line class="cls-6" x1="217.28341" y1="172.70743" x2="214.12358" y2="175.55255"/><line class="cls-6" x1="211.06387" y1="166.48789" x2="208.21875" y2="169.64772"/><line class="cls-6" x1="204.22828" y1="160.95254" x2="201.72904" y2="164.39245"/><line class="cls-6" x1="196.85154" y1="156.16203" x2="194.72555" y2="159.84434"/><line class="cls-6" x1="189.01446" y1="152.16883" x2="187.28503" y2="156.0532"/><line class="cls-6" x1="180.80291" y1="149.01672" x2="179.48898" y2="153.06058"/><line class="cls-6" x1="172.30686" y1="146.74021" x2="171.42282" y2="150.89926"/><line class="cls-6" x1="163.61939" y1="145.36425" x2="163.17494" y2="149.59292"/></g><g id="メモリ_内側1度_" data-name="メモリ（内側1度）"><line class="cls-6" x1="154.83568" y1="145.72792" x2="154.83568" y2="147.42871"/><line class="cls-6" x1="153.38351" y1="145.7406" x2="153.41319" y2="147.44113"/><line class="cls-6" x1="151.93178" y1="145.77861" x2="151.99113" y2="147.47836"/><line class="cls-6" x1="150.48093" y1="145.84196" x2="150.56994" y2="147.54041"/><line class="cls-6" x1="149.03141" y1="145.93061" x2="149.15005" y2="147.62726"/><line class="cls-6" x1="147.58366" y1="146.04455" x2="147.73189" y2="147.73887"/><line class="cls-6" x1="146.13811" y1="146.18374" x2="146.31589" y2="147.87521"/><line class="cls-6" x1="144.69522" y1="146.34814" x2="144.90249" y2="148.03625"/><line class="cls-6" x1="143.25541" y1="146.5377" x2="143.49212" y2="148.22193"/><line class="cls-6" x1="141.81913" y1="146.75235" x2="142.08519" y2="148.4322"/><line class="cls-6" x1="140.38682" y1="146.99204" x2="140.68216" y2="148.66698"/><line class="cls-6" x1="138.95891" y1="147.25668" x2="139.28343" y2="148.92622"/><line class="cls-6" x1="137.53583" y1="147.54621" x2="137.88945" y2="149.20983"/><line class="cls-6" x1="136.11803" y1="147.86053" x2="136.50062" y2="149.51773"/><line class="cls-6" x1="134.70592" y1="148.19955" x2="135.11738" y2="149.84981"/><line class="cls-6" x1="133.29995" y1="148.56316" x2="133.74014" y2="150.20599"/><line class="cls-6" x1="131.90054" y1="148.95125" x2="132.36934" y2="150.58615"/><line class="cls-6" x1="130.50811" y1="149.3637" x2="131.00537" y2="150.99018"/><line class="cls-6" x1="129.12309" y1="149.8004" x2="129.64867" y2="151.41794"/><line class="cls-6" x1="127.74591" y1="150.2612" x2="128.29963" y2="151.86932"/><line class="cls-6" x1="126.37698" y1="150.74596" x2="126.95868" y2="152.34418"/><line class="cls-6" x1="125.01671" y1="151.25454" x2="125.62622" y2="152.84237"/><line class="cls-6" x1="123.66553" y1="151.78679" x2="124.30266" y2="153.36373"/><line class="cls-6" x1="122.32385" y1="152.34253" x2="122.9884" y2="153.90811"/><line class="cls-6" x1="120.99207" y1="152.92161" x2="121.68384" y2="154.47535"/><line class="cls-6" x1="119.67059" y1="153.52384" x2="120.38938" y2="155.06527"/><line class="cls-6" x1="118.35983" y1="154.14904" x2="119.10541" y2="155.6777"/><line class="cls-6" x1="117.06018" y1="154.79702" x2="117.83232" y2="156.31243"/><line class="cls-6" x1="115.77204" y1="155.46758" x2="116.57051" y2="156.96929"/><line class="cls-6" x1="114.49579" y1="156.16053" x2="115.32035" y2="157.64807"/><line class="cls-6" x1="113.23184" y1="156.87564" x2="114.08223" y2="158.34857"/><line class="cls-6" x1="111.98055" y1="157.6127" x2="112.85652" y2="159.07056"/><line class="cls-6" x1="110.74233" y1="158.37149" x2="111.64361" y2="159.81384"/><line class="cls-6" x1="109.51753" y1="159.15177" x2="110.44384" y2="160.57817"/><line class="cls-6" x1="108.30653" y1="159.95331" x2="109.2576" y2="161.36333"/><line class="cls-6" x1="107.10971" y1="160.77586" x2="108.08524" y2="162.16907"/><line class="cls-6" x1="105.92743" y1="161.61918" x2="106.92713" y2="162.99514"/><line class="cls-6" x1="104.76004" y1="162.483" x2="105.7836" y2="163.84131"/><line class="cls-6" x1="103.60791" y1="163.36706" x2="104.65502" y2="164.7073"/><line class="cls-6" x1="102.47139" y1="164.27109" x2="103.54173" y2="165.59285"/><line class="cls-6" x1="101.35081" y1="165.19483" x2="102.44406" y2="166.4977"/><line class="cls-6" x1="100.24653" y1="166.13797" x2="101.36234" y2="167.42157"/><line class="cls-6" x1="99.15887" y1="167.10025" x2="100.29692" y2="168.36418"/><line class="cls-6" x1="98.08817" y1="168.08136" x2="99.24811" y2="169.32524"/><line class="cls-6" x1="97.03476" y1="169.08101" x2="98.21623" y2="170.30446"/><line class="cls-6" x1="95.99896" y1="170.09889" x2="97.2016" y2="171.30153"/><line class="cls-6" x1="94.98108" y1="171.1347" x2="96.20452" y2="172.31616"/><line class="cls-6" x1="93.98143" y1="172.18811" x2="95.22531" y2="173.34804"/><line class="cls-6" x1="93.00032" y1="173.2588" x2="94.26425" y2="174.39685"/><line class="cls-6" x1="92.03804" y1="174.34646" x2="93.32164" y2="175.46228"/><line class="cls-6" x1="91.09489" y1="175.45074" x2="92.39777" y2="176.54399"/><line class="cls-6" x1="90.17116" y1="176.57132" x2="91.49292" y2="177.64166"/><line class="cls-6" x1="89.26713" y1="177.70785" x2="90.60737" y2="178.75495"/><line class="cls-6" x1="88.38307" y1="178.85998" x2="89.74138" y2="179.88354"/><line class="cls-6" x1="87.51925" y1="180.02736" x2="88.89521" y2="181.02706"/><line class="cls-6" x1="86.67593" y1="181.20964" x2="88.06914" y2="182.18518"/><line class="cls-6" x1="85.85338" y1="182.40646" x2="87.2634" y2="183.35753"/><line class="cls-6" x1="85.05184" y1="183.61746" x2="86.47824" y2="184.54377"/><line class="cls-6" x1="84.27156" y1="184.84226" x2="85.71391" y2="185.74354"/><line class="cls-6" x1="83.51277" y1="186.08049" x2="84.97063" y2="186.95646"/><line class="cls-6" x1="82.77571" y1="187.33177" x2="84.24863" y2="188.18216"/><line class="cls-6" x1="82.0606" y1="188.59573" x2="83.54814" y2="189.42028"/><line class="cls-6" x1="81.36765" y1="189.87197" x2="82.86936" y2="190.67044"/><line class="cls-6" x1="80.69709" y1="191.16011" x2="82.2125" y2="191.93226"/><line class="cls-6" x1="80.04911" y1="192.45976" x2="81.57776" y2="193.20534"/><line class="cls-6" x1="79.42391" y1="193.77053" x2="80.96534" y2="194.48931"/><line class="cls-6" x1="78.82168" y1="195.092" x2="80.37542" y2="195.78377"/><line class="cls-6" x1="78.2426" y1="196.42378" x2="79.80818" y2="197.08833"/><line class="cls-6" x1="77.68686" y1="197.76547" x2="79.2638" y2="198.40259"/><line class="cls-6" x1="77.15461" y1="199.11665" x2="78.74243" y2="199.72615"/><line class="cls-6" x1="76.64603" y1="200.47691" x2="78.24425" y2="201.05861"/><line class="cls-6" x1="76.16127" y1="201.84584" x2="77.76939" y2="202.39956"/><line class="cls-6" x1="75.70047" y1="203.22302" x2="77.31801" y2="203.7486"/><line class="cls-6" x1="75.26377" y1="204.60804" x2="76.89024" y2="205.1053"/><line class="cls-6" x1="74.85132" y1="206.00047" x2="76.48622" y2="206.46927"/><line class="cls-6" x1="74.46323" y1="207.39988" x2="76.10606" y2="207.84008"/><line class="cls-6" x1="74.09962" y1="208.80585" x2="75.74988" y2="209.21731"/><line class="cls-6" x1="73.7606" y1="210.21796" x2="75.4178" y2="210.60055"/><line class="cls-6" x1="73.44628" y1="211.63576" x2="75.1099" y2="211.98938"/><line class="cls-6" x1="73.15675" y1="213.05884" x2="74.82629" y2="213.38336"/><line class="cls-6" x1="72.8921" y1="214.48675" x2="74.56705" y2="214.78209"/><line class="cls-6" x1="72.65242" y1="215.91906" x2="74.33226" y2="216.18513"/><line class="cls-6" x1="72.43776" y1="217.35534" x2="74.122" y2="217.59205"/><line class="cls-6" x1="72.24821" y1="218.79515" x2="73.93632" y2="219.00242"/><line class="cls-6" x1="72.08381" y1="220.23804" x2="73.77528" y2="220.41582"/><line class="cls-6" x1="71.94462" y1="221.68359" x2="73.63894" y2="221.83182"/><line class="cls-6" x1="71.83068" y1="223.13134" x2="73.52733" y2="223.24998"/><line class="cls-6" x1="71.74203" y1="224.58086" x2="73.44048" y2="224.66987"/><line class="cls-6" x1="71.67868" y1="226.03171" x2="73.37843" y2="226.09107"/><line class="cls-6" x1="71.64067" y1="227.48344" x2="73.34119" y2="227.51312"/><line class="cls-6" x1="71.62799" y1="228.93562" x2="73.32878" y2="228.93562"/><line class="cls-6" x1="71.64067" y1="230.38779" x2="73.34119" y2="230.35811"/><line class="cls-6" x1="71.67868" y1="231.83952" x2="73.37843" y2="231.78017"/><line class="cls-6" x1="71.74203" y1="233.29037" x2="73.44048" y2="233.20136"/><line class="cls-6" x1="71.83068" y1="234.73989" x2="73.52733" y2="234.62125"/><line class="cls-6" x1="71.94462" y1="236.18764" x2="73.63894" y2="236.03941"/><line class="cls-6" x1="72.08381" y1="237.63319" x2="73.77528" y2="237.45541"/><line class="cls-6" x1="72.24821" y1="239.07608" x2="73.93632" y2="238.86881"/><line class="cls-6" x1="72.43776" y1="240.51589" x2="74.122" y2="240.27918"/><line class="cls-6" x1="72.65242" y1="241.95217" x2="74.33226" y2="241.6861"/><line class="cls-6" x1="72.8921" y1="243.38448" x2="74.56705" y2="243.08914"/><line class="cls-6" x1="73.15675" y1="244.81239" x2="74.82629" y2="244.48787"/><line class="cls-6" x1="73.44628" y1="246.23547" x2="75.1099" y2="245.88185"/><line class="cls-6" x1="73.7606" y1="247.65327" x2="75.4178" y2="247.27068"/><line class="cls-6" x1="74.09962" y1="249.06538" x2="75.74988" y2="248.65392"/><line class="cls-6" x1="74.46323" y1="250.47135" x2="76.10606" y2="250.03115"/><line class="cls-6" x1="74.85132" y1="251.87076" x2="76.48622" y2="251.40196"/><line class="cls-6" x1="75.26377" y1="253.26319" x2="76.89024" y2="252.76593"/><line class="cls-6" x1="75.70047" y1="254.64821" x2="77.31801" y2="254.12263"/><line class="cls-6" x1="76.16127" y1="256.02539" x2="77.76939" y2="255.47167"/><line class="cls-6" x1="76.64603" y1="257.39432" x2="78.24425" y2="256.81262"/><line class="cls-6" x1="77.15461" y1="258.75459" x2="78.74243" y2="258.14508"/><line class="cls-6" x1="77.68686" y1="260.10577" x2="79.2638" y2="259.46864"/><line class="cls-6" x1="78.2426" y1="261.44745" x2="79.80818" y2="260.7829"/><line class="cls-6" x1="78.82168" y1="262.77923" x2="80.37542" y2="262.08746"/><line class="cls-6" x1="79.42391" y1="264.10071" x2="80.96534" y2="263.38192"/><line class="cls-6" x1="80.04911" y1="265.41147" x2="81.57776" y2="264.66589"/><line class="cls-6" x1="80.69709" y1="266.71112" x2="82.2125" y2="265.93898"/><line class="cls-6" x1="81.36765" y1="267.99926" x2="82.86936" y2="267.20079"/><line class="cls-6" x1="82.0606" y1="269.2755" x2="83.54814" y2="268.45095"/><line class="cls-6" x1="82.77571" y1="270.53946" x2="84.24863" y2="269.68907"/><line class="cls-6" x1="83.51277" y1="271.79074" x2="84.97063" y2="270.91477"/><line class="cls-6" x1="84.27156" y1="273.02897" x2="85.71391" y2="272.12769"/><line class="cls-6" x1="85.05184" y1="274.25377" x2="86.47824" y2="273.32746"/><line class="cls-6" x1="85.85338" y1="275.46477" x2="87.2634" y2="274.5137"/><line class="cls-6" x1="86.67593" y1="276.66159" x2="88.06914" y2="275.68606"/><line class="cls-6" x1="87.51925" y1="277.84387" x2="88.89521" y2="276.84417"/><line class="cls-6" x1="88.38307" y1="279.01125" x2="89.74138" y2="277.98769"/><line class="cls-6" x1="89.26713" y1="280.16339" x2="90.60737" y2="279.11628"/><line class="cls-6" x1="90.17116" y1="281.29991" x2="91.49292" y2="280.22957"/><line class="cls-6" x1="91.09489" y1="282.42049" x2="92.39777" y2="281.32724"/><line class="cls-6" x1="92.03804" y1="283.52477" x2="93.32164" y2="282.40896"/><line class="cls-6" x1="93.00032" y1="284.61243" x2="94.26425" y2="283.47438"/><line class="cls-6" x1="93.98143" y1="285.68312" x2="95.22531" y2="284.52319"/><line class="cls-6" x1="94.98108" y1="286.73653" x2="96.20452" y2="285.55507"/><line class="cls-6" x1="95.99896" y1="287.77234" x2="97.2016" y2="286.5697"/><line class="cls-6" x1="97.03476" y1="288.79022" x2="98.21623" y2="287.56678"/><line class="cls-6" x1="98.08817" y1="289.78987" x2="99.24811" y2="288.54599"/><line class="cls-6" x1="99.15887" y1="290.77098" x2="100.29692" y2="289.50705"/><line class="cls-6" x1="100.24653" y1="291.73326" x2="101.36234" y2="290.44966"/><line class="cls-6" x1="101.35081" y1="292.67641" x2="102.44406" y2="291.37353"/><line class="cls-6" x1="102.47139" y1="293.60014" x2="103.54173" y2="292.27838"/><line class="cls-6" x1="103.60791" y1="294.50417" x2="104.65502" y2="293.16393"/><line class="cls-6" x1="104.76004" y1="295.38823" x2="105.7836" y2="294.02992"/><line class="cls-6" x1="105.92743" y1="296.25205" x2="106.92713" y2="294.87609"/><line class="cls-6" x1="107.10971" y1="297.09537" x2="108.08524" y2="295.70216"/><line class="cls-6" x1="108.30653" y1="297.91792" x2="109.2576" y2="296.5079"/><line class="cls-6" x1="109.51753" y1="298.71946" x2="110.44384" y2="297.29306"/><line class="cls-6" x1="110.74233" y1="299.49974" x2="111.64361" y2="298.05739"/><line class="cls-6" x1="111.98055" y1="300.25853" x2="112.85652" y2="298.80067"/><line class="cls-6" x1="113.23184" y1="300.99559" x2="114.08223" y2="299.52266"/><line class="cls-6" x1="114.49579" y1="301.7107" x2="115.32035" y2="300.22316"/><line class="cls-6" x1="115.77204" y1="302.40365" x2="116.57051" y2="300.90194"/><line class="cls-6" x1="117.06018" y1="303.07421" x2="117.83232" y2="301.5588"/><line class="cls-6" x1="118.35983" y1="303.72219" x2="119.10541" y2="302.19354"/><line class="cls-6" x1="119.67059" y1="304.34739" x2="120.38938" y2="302.80596"/><line class="cls-6" x1="120.99207" y1="304.94962" x2="121.68384" y2="303.39588"/><line class="cls-6" x1="122.32385" y1="305.5287" x2="122.9884" y2="303.96312"/><line class="cls-6" x1="123.66553" y1="306.08444" x2="124.30266" y2="304.5075"/><line class="cls-6" x1="125.01671" y1="306.61669" x2="125.62622" y2="305.02887"/><line class="cls-6" x1="126.37698" y1="307.12527" x2="126.95868" y2="305.52705"/><line class="cls-6" x1="127.74591" y1="307.61003" x2="128.29963" y2="306.00191"/><line class="cls-6" x1="129.12309" y1="308.07083" x2="129.64867" y2="306.45329"/><line class="cls-6" x1="130.50811" y1="308.50753" x2="131.00537" y2="306.88106"/><line class="cls-6" x1="131.90054" y1="308.91998" x2="132.36934" y2="307.28508"/><line class="cls-6" x1="133.29995" y1="309.30807" x2="133.74014" y2="307.66524"/><line class="cls-6" x1="134.70592" y1="309.67168" x2="135.11738" y2="308.02142"/><line class="cls-6" x1="136.11803" y1="310.0107" x2="136.50062" y2="308.3535"/><line class="cls-6" x1="137.53583" y1="310.32502" x2="137.88945" y2="308.6614"/><line class="cls-6" x1="138.95891" y1="310.61455" x2="139.28343" y2="308.94501"/><line class="cls-6" x1="140.38682" y1="310.8792" x2="140.68216" y2="309.20425"/><line class="cls-6" x1="141.81913" y1="311.11888" x2="142.08519" y2="309.43903"/><line class="cls-6" x1="143.25541" y1="311.33354" x2="143.49212" y2="309.6493"/><line class="cls-6" x1="144.69522" y1="311.52309" x2="144.90249" y2="309.83498"/><line class="cls-6" x1="146.13811" y1="311.68749" x2="146.31589" y2="309.99602"/><line class="cls-6" x1="147.58366" y1="311.82668" x2="147.73189" y2="310.13236"/><line class="cls-6" x1="149.03141" y1="311.94062" x2="149.15005" y2="310.24397"/><line class="cls-6" x1="150.48093" y1="312.02927" x2="150.56994" y2="310.33082"/><line class="cls-6" x1="151.93178" y1="312.09262" x2="151.99113" y2="310.39287"/><line class="cls-6" x1="153.38351" y1="312.13063" x2="153.41319" y2="310.43011"/><line class="cls-6" x1="154.83568" y1="312.14331" x2="154.83568" y2="310.44252"/><line class="cls-6" x1="156.28786" y1="312.13063" x2="156.25818" y2="310.43011"/><line class="cls-6" x1="157.73959" y1="312.09262" x2="157.68023" y2="310.39287"/><line class="cls-6" x1="159.19044" y1="312.02927" x2="159.10143" y2="310.33082"/><line class="cls-6" x1="160.63996" y1="311.94062" x2="160.52132" y2="310.24397"/><line class="cls-6" x1="162.08771" y1="311.82668" x2="161.93948" y2="310.13236"/><line class="cls-6" x1="163.53326" y1="311.68749" x2="163.35548" y2="309.99602"/><line class="cls-6" x1="164.97615" y1="311.52309" x2="164.76888" y2="309.83498"/><line class="cls-6" x1="166.41596" y1="311.33354" x2="166.17925" y2="309.6493"/><line class="cls-6" x1="167.85223" y1="311.11888" x2="167.58617" y2="309.43903"/><line class="cls-6" x1="169.28455" y1="310.8792" x2="168.98921" y2="309.20425"/><line class="cls-6" x1="170.71246" y1="310.61455" x2="170.38793" y2="308.94501"/><line class="cls-6" x1="172.13554" y1="310.32502" x2="171.78192" y2="308.6614"/><line class="cls-6" x1="173.55334" y1="310.0107" x2="173.17075" y2="308.3535"/><line class="cls-6" x1="174.96545" y1="309.67168" x2="174.55399" y2="308.02142"/><line class="cls-6" x1="176.37142" y1="309.30807" x2="175.93122" y2="307.66524"/><line class="cls-6" x1="177.77083" y1="308.91998" x2="177.30203" y2="307.28508"/><line class="cls-6" x1="179.16326" y1="308.50753" x2="178.666" y2="306.88106"/><line class="cls-6" x1="180.54827" y1="308.07083" x2="180.0227" y2="306.45329"/><line class="cls-6" x1="181.92546" y1="307.61003" x2="181.37174" y2="306.00191"/><line class="cls-6" x1="183.29439" y1="307.12527" x2="182.71269" y2="305.52705"/><line class="cls-6" x1="184.65465" y1="306.61669" x2="184.04515" y2="305.02887"/><line class="cls-6" x1="186.00583" y1="306.08444" x2="185.36871" y2="304.5075"/><line class="cls-6" x1="187.34752" y1="305.5287" x2="186.68297" y2="303.96312"/><line class="cls-6" x1="188.6793" y1="304.94962" x2="187.98753" y2="303.39588"/><line class="cls-6" x1="190.00077" y1="304.34739" x2="189.28199" y2="302.80596"/><line class="cls-6" x1="191.31153" y1="303.72219" x2="190.56596" y2="302.19354"/><line class="cls-6" x1="192.61119" y1="303.07421" x2="191.83904" y2="301.5588"/><line class="cls-6" x1="193.89933" y1="302.40365" x2="193.10086" y2="300.90194"/><line class="cls-6" x1="195.17557" y1="301.7107" x2="194.35101" y2="300.22316"/><line class="cls-6" x1="196.43953" y1="300.99559" x2="195.58914" y2="299.52266"/><line class="cls-6" x1="197.69081" y1="300.25853" x2="196.81484" y2="298.80067"/><line class="cls-6" x1="198.92904" y1="299.49974" x2="198.02776" y2="298.05739"/><line class="cls-6" x1="200.15384" y1="298.71946" x2="199.22753" y2="297.29306"/><line class="cls-6" x1="201.36483" y1="297.91792" x2="200.41377" y2="296.5079"/><line class="cls-6" x1="202.56165" y1="297.09537" x2="201.58612" y2="295.70216"/><line class="cls-6" x1="203.74394" y1="296.25205" x2="202.74424" y2="294.87609"/><line class="cls-6" x1="204.91132" y1="295.38823" x2="203.88776" y2="294.02992"/><line class="cls-6" x1="206.06345" y1="294.50417" x2="205.01634" y2="293.16393"/><line class="cls-6" x1="207.19998" y1="293.60014" x2="206.12964" y2="292.27838"/><line class="cls-6" x1="208.32056" y1="292.67641" x2="207.22731" y2="291.37353"/><line class="cls-6" x1="209.42484" y1="291.73326" x2="208.30902" y2="290.44966"/><line class="cls-6" x1="210.5125" y1="290.77098" x2="209.37445" y2="289.50705"/><line class="cls-6" x1="211.58319" y1="289.78987" x2="210.42326" y2="288.54599"/><line class="cls-6" x1="212.6366" y1="288.79022" x2="211.45514" y2="287.56678"/><line class="cls-6" x1="213.67241" y1="287.77234" x2="212.46977" y2="286.5697"/><line class="cls-6" x1="214.69029" y1="286.73653" x2="213.46684" y2="285.55507"/><line class="cls-6" x1="215.68994" y1="285.68312" x2="214.44606" y2="284.52319"/><line class="cls-6" x1="216.67105" y1="284.61243" x2="215.40712" y2="283.47438"/><line class="cls-6" x1="217.63333" y1="283.52477" x2="216.34973" y2="282.40896"/><line class="cls-6" x1="218.57647" y1="282.42049" x2="217.27359" y2="281.32724"/><line class="cls-6" x1="219.50021" y1="281.29991" x2="218.17844" y2="280.22957"/><line class="cls-6" x1="220.40424" y1="280.16339" x2="219.064" y2="279.11628"/><line class="cls-6" x1="221.2883" y1="279.01125" x2="219.92999" y2="277.98769"/><line class="cls-6" x1="222.15212" y1="277.84387" x2="220.77615" y2="276.84417"/><line class="cls-6" x1="222.99543" y1="276.66159" x2="221.60223" y2="275.68606"/><line class="cls-6" x1="223.81799" y1="275.46477" x2="222.40797" y2="274.5137"/><line class="cls-6" x1="224.61953" y1="274.25377" x2="223.19313" y2="273.32746"/><line class="cls-6" x1="225.39981" y1="273.02897" x2="223.95746" y2="272.12769"/><line class="cls-6" x1="226.1586" y1="271.79074" x2="224.70074" y2="270.91477"/><line class="cls-6" x1="226.89566" y1="270.53946" x2="225.42273" y2="269.68907"/><line class="cls-6" x1="227.61077" y1="269.2755" x2="226.12323" y2="268.45095"/><line class="cls-6" x1="228.30371" y1="267.99926" x2="226.80201" y2="267.20079"/><line class="cls-6" x1="228.97428" y1="266.71112" x2="227.45887" y2="265.93898"/><line class="cls-6" x1="229.62226" y1="265.41147" x2="228.0936" y2="264.66589"/><line class="cls-6" x1="230.24746" y1="264.10071" x2="228.70603" y2="263.38192"/><line class="cls-6" x1="230.84969" y1="262.77923" x2="229.29595" y2="262.08746"/><line class="cls-6" x1="231.42877" y1="261.44745" x2="229.86318" y2="260.7829"/><line class="cls-6" x1="231.98451" y1="260.10577" x2="230.40757" y2="259.46864"/><line class="cls-6" x1="232.51676" y1="258.75459" x2="230.92893" y2="258.14508"/><line class="cls-6" x1="233.02534" y1="257.39432" x2="231.42712" y2="256.81262"/><line class="cls-6" x1="233.5101" y1="256.02539" x2="231.90198" y2="255.47167"/><line class="cls-6" x1="233.9709" y1="254.64821" x2="232.35336" y2="254.12263"/><line class="cls-6" x1="234.40759" y1="253.26319" x2="232.78112" y2="252.76593"/><line class="cls-6" x1="234.82005" y1="251.87076" x2="233.18515" y2="251.40196"/><line class="cls-6" x1="235.20814" y1="250.47135" x2="233.56531" y2="250.03115"/><line class="cls-6" x1="235.57175" y1="249.06538" x2="233.92148" y2="248.65392"/><line class="cls-6" x1="235.91077" y1="247.65327" x2="234.25357" y2="247.27068"/><line class="cls-6" x1="236.22509" y1="246.23547" x2="234.56147" y2="245.88185"/><line class="cls-6" x1="236.51462" y1="244.81239" x2="234.84508" y2="244.48787"/><line class="cls-6" x1="236.77926" y1="243.38448" x2="235.10431" y2="243.08914"/><line class="cls-6" x1="237.01895" y1="241.95217" x2="235.3391" y2="241.6861"/><line class="cls-6" x1="237.2336" y1="240.51589" x2="235.54937" y2="240.27918"/><line class="cls-6" x1="237.42316" y1="239.07608" x2="235.73505" y2="238.86881"/><line class="cls-6" x1="237.58755" y1="237.63319" x2="235.89608" y2="237.45541"/><line class="cls-6" x1="237.72674" y1="236.18764" x2="236.03243" y2="236.03941"/><line class="cls-6" x1="237.84069" y1="234.73989" x2="236.14404" y2="234.62125"/><line class="cls-6" x1="237.92934" y1="233.29037" x2="236.23089" y2="233.20136"/><line class="cls-6" x1="237.99269" y1="231.83952" x2="236.29294" y2="231.78017"/><line class="cls-6" x1="238.0307" y1="230.38779" x2="236.33017" y2="230.35811"/><line class="cls-6" x1="238.04338" y1="228.93562" x2="236.34259" y2="228.93562"/><line class="cls-6" x1="238.0307" y1="227.48344" x2="236.33017" y2="227.51312"/><line class="cls-6" x1="237.99269" y1="226.03171" x2="236.29294" y2="226.09107"/><line class="cls-6" x1="237.92934" y1="224.58086" x2="236.23089" y2="224.66987"/><line class="cls-6" x1="237.84069" y1="223.13134" x2="236.14404" y2="223.24998"/><line class="cls-6" x1="237.72674" y1="221.68359" x2="236.03243" y2="221.83182"/><line class="cls-6" x1="237.58755" y1="220.23804" x2="235.89608" y2="220.41582"/><line class="cls-6" x1="237.42316" y1="218.79515" x2="235.73505" y2="219.00242"/><line class="cls-6" x1="237.2336" y1="217.35534" x2="235.54937" y2="217.59205"/><line class="cls-6" x1="237.01895" y1="215.91906" x2="235.3391" y2="216.18513"/><line class="cls-6" x1="236.77926" y1="214.48675" x2="235.10431" y2="214.78209"/><line class="cls-6" x1="236.51462" y1="213.05884" x2="234.84508" y2="213.38337"/><line class="cls-6" x1="236.22509" y1="211.63576" x2="234.56147" y2="211.98938"/><line class="cls-6" x1="235.91077" y1="210.21796" x2="234.25357" y2="210.60055"/><line class="cls-6" x1="235.57175" y1="208.80585" x2="233.92148" y2="209.21731"/><line class="cls-6" x1="235.20814" y1="207.39988" x2="233.56531" y2="207.84008"/><line class="cls-6" x1="234.82005" y1="206.00047" x2="233.18515" y2="206.46927"/><line class="cls-6" x1="234.40759" y1="204.60804" x2="232.78112" y2="205.1053"/><line class="cls-6" x1="233.9709" y1="203.22302" x2="232.35336" y2="203.7486"/><line class="cls-6" x1="233.5101" y1="201.84584" x2="231.90198" y2="202.39956"/><line class="cls-6" x1="233.02534" y1="200.47691" x2="231.42712" y2="201.05861"/><line class="cls-6" x1="232.51676" y1="199.11665" x2="230.92893" y2="199.72615"/><line class="cls-6" x1="231.98451" y1="197.76547" x2="230.40757" y2="198.40259"/><line class="cls-6" x1="231.42877" y1="196.42378" x2="229.86318" y2="197.08833"/><line class="cls-6" x1="230.84969" y1="195.092" x2="229.29595" y2="195.78377"/><line class="cls-6" x1="230.24746" y1="193.77053" x2="228.70603" y2="194.48931"/><line class="cls-6" x1="229.62226" y1="192.45976" x2="228.0936" y2="193.20534"/><line class="cls-6" x1="228.97428" y1="191.16011" x2="227.45887" y2="191.93226"/><line class="cls-6" x1="228.30371" y1="189.87197" x2="226.80201" y2="190.67044"/><line class="cls-6" x1="227.61077" y1="188.59573" x2="226.12323" y2="189.42028"/><line class="cls-6" x1="226.89566" y1="187.33177" x2="225.42273" y2="188.18216"/><line class="cls-6" x1="226.1586" y1="186.08049" x2="224.70074" y2="186.95646"/><line class="cls-6" x1="225.39981" y1="184.84226" x2="223.95746" y2="185.74354"/><line class="cls-6" x1="224.61953" y1="183.61746" x2="223.19313" y2="184.54377"/><line class="cls-6" x1="223.81799" y1="182.40646" x2="222.40797" y2="183.35753"/><line class="cls-6" x1="222.99543" y1="181.20964" x2="221.60223" y2="182.18518"/><line class="cls-6" x1="222.15212" y1="180.02736" x2="220.77615" y2="181.02706"/><line class="cls-6" x1="221.2883" y1="178.85998" x2="219.92999" y2="179.88354"/><line class="cls-6" x1="220.40424" y1="177.70785" x2="219.064" y2="178.75495"/><line class="cls-6" x1="219.50021" y1="176.57132" x2="218.17845" y2="177.64166"/><line class="cls-6" x1="218.57647" y1="175.45074" x2="217.27359" y2="176.54399"/><line class="cls-6" x1="217.63333" y1="174.34646" x2="216.34973" y2="175.46228"/><line class="cls-6" x1="216.67105" y1="173.2588" x2="215.40712" y2="174.39685"/><line class="cls-6" x1="215.68994" y1="172.18811" x2="214.44606" y2="173.34804"/><line class="cls-6" x1="214.69029" y1="171.1347" x2="213.46684" y2="172.31616"/><line class="cls-6" x1="213.67241" y1="170.09889" x2="212.46977" y2="171.30153"/><line class="cls-6" x1="212.6366" y1="169.08101" x2="211.45514" y2="170.30446"/><line class="cls-6" x1="211.58319" y1="168.08136" x2="210.42326" y2="169.32524"/><line class="cls-6" x1="210.5125" y1="167.10025" x2="209.37445" y2="168.36418"/><line class="cls-6" x1="209.42484" y1="166.13797" x2="208.30902" y2="167.42157"/><line class="cls-6" x1="208.32056" y1="165.19483" x2="207.22731" y2="166.4977"/><line class="cls-6" x1="207.19998" y1="164.27109" x2="206.12964" y2="165.59285"/><line class="cls-6" x1="206.06345" y1="163.36706" x2="205.01634" y2="164.7073"/><line class="cls-6" x1="204.91132" y1="162.483" x2="203.88776" y2="163.84131"/><line class="cls-6" x1="203.74394" y1="161.61918" x2="202.74424" y2="162.99514"/><line class="cls-6" x1="202.56165" y1="160.77586" x2="201.58612" y2="162.16907"/><line class="cls-6" x1="201.36483" y1="159.95331" x2="200.41377" y2="161.36333"/><line class="cls-6" x1="200.15384" y1="159.15177" x2="199.22753" y2="160.57817"/><line class="cls-6" x1="198.92904" y1="158.37149" x2="198.02776" y2="159.81384"/><line class="cls-6" x1="197.69081" y1="157.6127" x2="196.81484" y2="159.07056"/><line class="cls-6" x1="196.43953" y1="156.87564" x2="195.58914" y2="158.34857"/><line class="cls-6" x1="195.17557" y1="156.16053" x2="194.35101" y2="157.64807"/><line class="cls-6" x1="193.89933" y1="155.46758" x2="193.10086" y2="156.96929"/><line class="cls-6" x1="192.61119" y1="154.79702" x2="191.83904" y2="156.31243"/><line class="cls-6" x1="191.31153" y1="154.14904" x2="190.56596" y2="155.6777"/><line class="cls-6" x1="190.00077" y1="153.52384" x2="189.28199" y2="155.06527"/><line class="cls-6" x1="188.6793" y1="152.92161" x2="187.98753" y2="154.47535"/><line class="cls-6" x1="187.34752" y1="152.34253" x2="186.68297" y2="153.90811"/><line class="cls-6" x1="186.00583" y1="151.78679" x2="185.36871" y2="153.36373"/><line class="cls-6" x1="184.65465" y1="151.25454" x2="184.04515" y2="152.84237"/><line class="cls-6" x1="183.29439" y1="150.74596" x2="182.71269" y2="152.34418"/><line class="cls-6" x1="181.92546" y1="150.2612" x2="181.37174" y2="151.86932"/><line class="cls-6" x1="180.54827" y1="149.8004" x2="180.0227" y2="151.41794"/><line class="cls-6" x1="179.16326" y1="149.3637" x2="178.666" y2="150.99018"/><line class="cls-6" x1="177.77083" y1="148.95125" x2="177.30203" y2="150.58615"/><line class="cls-6" x1="176.37142" y1="148.56316" x2="175.93122" y2="150.20599"/><line class="cls-6" x1="174.96545" y1="148.19955" x2="174.55399" y2="149.84981"/><line class="cls-6" x1="173.55334" y1="147.86053" x2="173.17075" y2="149.51773"/><line class="cls-6" x1="172.13554" y1="147.54621" x2="171.78192" y2="149.20983"/><line class="cls-6" x1="170.71246" y1="147.25668" x2="170.38793" y2="148.92622"/><line class="cls-6" x1="169.28455" y1="146.99204" x2="168.98921" y2="148.66698"/><line class="cls-6" x1="167.85223" y1="146.75235" x2="167.58617" y2="148.4322"/><line class="cls-6" x1="166.41596" y1="146.5377" x2="166.17925" y2="148.22193"/><line class="cls-6" x1="164.97615" y1="146.34814" x2="164.76888" y2="148.03625"/><line class="cls-6" x1="163.53326" y1="146.18374" x2="163.35548" y2="147.87521"/><line class="cls-6" x1="162.08771" y1="146.04455" x2="161.93948" y2="147.73887"/><line class="cls-6" x1="160.63996" y1="145.93061" x2="160.52132" y2="147.62726"/><line class="cls-6" x1="159.19044" y1="145.84196" x2="159.10143" y2="147.54041"/><line class="cls-6" x1="157.73959" y1="145.77861" x2="157.68023" y2="147.47836"/><line class="cls-6" x1="156.28786" y1="145.7406" x2="156.25818" y2="147.44113"/></g><g id="針"><circle class="cls-7" cx="154.83568" cy="228.93562" r="8.50394"/><line class="cls-8" x1="133.9698" y1="247.72074" x2="233.48054" y2="158.12833"/><path class="cls-9" d="M230.546,160.77051l-8.88672-2.66513.08105-.31445,13.04053-4.83286q6.01466-3.41556,12.02881-6.83014-4.02612,5.62373-8.05127,11.24811L232.588,169.83936l-.2915.08053Z"/><circle class="cls-2" cx="154.83568" cy="228.93496" r="4.25197"/></g><rect class="cls-9" x="136.00104" y="35.99594" width="5.66929" height="26"/><rect class="cls-9" x="144.00104" y="35.99594" width="5.66929" height="26"/><rect class="cls-9" x="152.00104" y="35.99594" width="5.66929" height="26"/><rect class="cls-9" x="160.00104" y="35.99594" width="5.66929" height="26"/><rect class="cls-9" x="168.00104" y="35.99594" width="5.66929" height="26"/><rect class="cls-9" x="139.95379" y="63.99594" width="29.76378" height="16"/><g id="縁"><path class="cls-10" d="M129.62119,370.33985a142.73626,142.73626,0,1,1,163.1259-102.64014,142.54466,142.54466,0,0,1-5.72071,16.73466"/><polygon class="cls-7" points="277.36 279.792 296.997 288.95 276.871 306.475 277.36 279.792"/></g><g id="SNS"><circle class="cls-7" cx="154.77475" cy="148.1354" r="20.8305"/><ellipse class="cls-2" cx="154.77475" cy="140.98834" rx="6" ry="6.35294"/><path class="cls-11" d="M166.77475,161.6354v-6.35294a3.38714,3.38714,0,0,0-1.2-2.54118,16.00634,16.00634,0,0,0-5.85-3.01764,16.25334,16.25334,0,0,0-4.95-.79412,17.89329,17.89329,0,0,0-4.95.79412,18.87669,18.87669,0,0,0-5.85,3.01764,3.38714,3.38714,0,0,0-1.2,2.54118v6.35294Z"/><circle class="cls-7" cx="72.97994" cy="227.03894" r="17.00787"/><ellipse class="cls-2" cx="72.97994" cy="221.20345" rx="4.89893" ry="5.18711"/><path class="cls-11" d="M82.77781,238.06154v-5.1871a2.76555,2.76555,0,0,0-.97979-2.07485,13.069,13.069,0,0,0-4.77646-2.46387,13.271,13.271,0,0,0-4.04162-.64839,14.61,14.61,0,0,0-4.04162.64839,15.41261,15.41261,0,0,0-4.77646,2.46387,2.76555,2.76555,0,0,0-.97979,2.07485v5.1871Z"/><circle class="cls-7" cx="231.15122" cy="266.8788" r="14.17323"/><ellipse class="cls-2" cx="230.15122" cy="262.01589" rx="4.08245" ry="4.32259"/><path class="cls-11" d="M238.31611,276.0643v-4.32259a2.30461,2.30461,0,0,0-.81649-1.729,10.89085,10.89085,0,0,0-3.98038-2.05323,11.0589,11.0589,0,0,0-3.368-.54032,12.17482,12.17482,0,0,0-3.368.54032,12.84393,12.84393,0,0,0-3.98038,2.05323,2.30461,2.30461,0,0,0-.81649,1.729v4.32259Z"/><g class="cls-12"><path class="cls-9" d="M65.29184,190.6292H47.221a1.02837,1.02837,0,0,0-1.00393,1.03041V204.1754a1.009,1.009,0,0,0,1.00393,1.03038H58.2643L62.28,209.41815v-4.18209h3.01182a1.02829,1.02829,0,0,0,1.00391-1.03039V191.68989A1.03557,1.03557,0,0,0,65.29184,190.6292Z"/></g><g class="cls-13"><path class="cls-9" d="M242.16531,234.44617h19.38a1.10287,1.10287,0,0,1,1.07666,1.10505V248.9737a1.08212,1.08212,0,0,1-1.07666,1.105H249.702l-4.30663,4.51753V250.1112h-3.23a1.10277,1.10277,0,0,1-1.07664-1.105V235.58369A1.11059,1.11059,0,0,1,242.16531,234.44617Z"/></g><circle class="cls-7" cx="123.65697" cy="302.74718" r="14.17323"/><ellipse class="cls-2" cx="123.65697" cy="297.88426" rx="4.08245" ry="4.32259"/><path class="cls-11" d="M131.82186,311.93268v-4.32259a2.30458,2.30458,0,0,0-.81649-1.729,10.89063,10.89063,0,0,0-3.98038-2.05323,11.05894,11.05894,0,0,0-3.368-.54033,12.17478,12.17478,0,0,0-3.368.54033,12.84372,12.84372,0,0,0-3.98038,2.05323,2.30458,2.30458,0,0,0-.81649,1.729v4.32259Z"/><g class="cls-14"><path class="cls-9" d="M134.1402,270.6591h19.38a1.10288,1.10288,0,0,1,1.07666,1.10506v13.42248a1.08212,1.08212,0,0,1-1.07666,1.105H141.67683l-4.30663,4.51753v-4.48506h-3.23a1.10277,1.10277,0,0,1-1.07664-1.105V271.79663A1.11059,1.11059,0,0,1,134.1402,270.6591Z"/></g><g class="cls-15"><path class="cls-9" d="M167.50783,109.54155h19.38a1.10288,1.10288,0,0,1,1.07666,1.10506v13.42248a1.08212,1.08212,0,0,1-1.07666,1.105H175.04447l-4.30663,4.51753v-4.48506h-3.23a1.10276,1.10276,0,0,1-1.07663-1.105V110.67908A1.11059,1.11059,0,0,1,167.50783,109.54155Z"/></g></g><line class="cls-16" x1="240.54539" y1="378.311" x2="240.54546" y2="347.12989"/><line class="cls-16" x1="269.11231" y1="378.311" x2="269.11239" y2="330.12202"/><line class="cls-16" x1="326.24617" y1="270.59446" x2="326.24626" y2="378.311"/><line class="cls-16" x1="354.81311" y1="205.39761" x2="354.81325" y2="378.311"/><line class="cls-16" x1="383.38007" y1="109.01966" x2="383.3803" y2="378.311"/><line class="cls-16" x1="297.67924" y1="307.44485" x2="297.67932" y2="378.311"/><line class="cls-16" x1="211.97848" y1="378.311" x2="211.97854" y2="359.42841"/><line class="cls-16" x1="183.41155" y1="378.311" x2="183.41163" y2="368.86959"/><line class="cls-16" x1="154.84463" y1="378.311" x2="154.8447" y2="375.47635"/><path class="cls-17" d="M404.91657,37.57779"/><path class="cls-17" d="M400.10749,47.99784"/><path class="cls-17" d="M404.1153,27.95929"/><circle class="cls-18" cx="154.83568" cy="44.99594" r="31.1811"/><rect class="cls-9" x="35.83453" y="116.35426" width="19.1097" height="9.98222" transform="translate(-72.51043 67.63755) rotate(-45.00057)"/><rect class="cls-9" x="19.46712" y="104.82888" width="33" height="14.18846" transform="translate(-68.60708 58.21415) rotate(-45.00002)"/><rect class="cls-7" x="8.80625" y="102.80162" width="39.86122" height="3.78247" transform="translate(-65.61221 50.98389) rotate(-45.00002)"/><rect class="cls-9" x="259.60927" y="111.79047" width="9.98222" height="19.1097" transform="translate(-8.30343 222.64466) rotate(-45.00057)"/><rect class="cls-9" x="266.9284" y="95.42306" width="14.18846" height="33" transform="translate(1.11785 226.54485) rotate(-45.00002)"/><rect class="cls-7" x="261.32227" y="102.80157" width="39.86122" height="3.78247" transform="translate(156.40597 -168.21197) rotate(44.99998)"/></g></svg>